{"glyphs":{"0":{"ha":1156,"x_min":0,"x_max":868,"o":"m 694 174 l 694 694 l 174 694 l 174 174 l 694 174 m 174 0 q 50 50 100 0 q 0 174 0 102 l 0 694 q 50 817 0 766 q 174 868 102 868 l 694 868 q 817 817 766 868 q 868 694 868 765 l 868 174 q 817 50 868 100 q 694 0 765 0 l 174 0 z "},"1":{"ha":635,"x_min":0,"x_max":347,"o":"m 174 0 l 174 694 l 0 694 l 0 868 l 174 868 q 296 817 245 868 q 347 694 347 765 l 347 0 l 174 0 z "},"2":{"ha":1156,"x_min":0,"x_max":868,"o":"m 174 0 q 50 50 100 0 q 0 174 0 102 l 0 347 q 50 469 0 419 q 174 521 102 521 l 694 521 l 694 694 l 0 694 l 0 868 l 694 868 q 817 817 766 868 q 868 694 868 765 l 868 521 q 817 397 868 448 q 694 347 765 347 l 174 347 l 174 174 l 868 174 l 868 0 l 174 0 z "},"3":{"ha":1156,"x_min":0,"x_max":868,"o":"m 0 0 l 0 174 l 694 174 l 694 347 l 0 347 l 0 521 l 694 521 l 694 694 l 0 694 l 0 868 l 694 868 q 817 817 766 868 q 868 694 868 765 l 868 174 q 817 50 868 100 q 694 0 765 0 l 0 0 z "},"4":{"ha":1156,"x_min":0,"x_max":868,"o":"m 694 0 l 694 347 l 174 347 q 50 397 100 347 q 0 521 0 449 l 0 868 l 174 868 l 174 521 l 694 521 l 694 868 l 868 868 l 868 0 l 694 0 z "},"5":{"ha":1156,"x_min":0,"x_max":868,"o":"m 0 0 l 0 174 l 694 174 l 694 347 l 174 347 q 50 397 100 347 q 0 521 0 449 l 0 694 q 50 817 0 766 q 174 868 102 868 l 868 868 l 868 694 l 174 694 l 174 521 l 694 521 q 817 469 766 521 q 868 347 868 418 l 868 174 q 817 50 868 100 q 694 0 765 0 l 0 0 z "},"6":{"ha":1156,"x_min":0,"x_max":868,"o":"m 694 174 l 694 347 l 174 347 l 174 174 l 694 174 m 174 0 q 50 50 100 0 q 0 174 0 102 l 0 694 q 50 817 0 766 q 174 868 102 868 l 868 868 l 868 694 l 174 694 l 174 521 l 694 521 q 817 469 766 521 q 868 347 868 418 l 868 174 q 817 50 868 100 q 694 0 765 0 l 174 0 z "},"7":{"ha":1156,"x_min":0,"x_max":868,"o":"m 694 0 l 694 694 l 0 694 l 0 868 l 694 868 q 817 817 766 868 q 868 694 868 765 l 868 0 l 694 0 z "},"8":{"ha":1156,"x_min":0,"x_max":868,"o":"m 694 174 l 694 347 l 174 347 l 174 174 l 694 174 m 694 521 l 694 694 l 174 694 l 174 521 l 694 521 m 174 0 q 50 50 100 0 q 0 174 0 102 l 0 694 q 50 817 0 766 q 174 868 102 868 l 694 868 q 817 817 766 868 q 868 694 868 765 l 868 174 q 817 50 868 100 q 694 0 765 0 l 174 0 z "},"9":{"ha":1156,"x_min":0,"x_max":868,"o":"m 694 521 l 694 694 l 174 694 l 174 521 l 694 521 m 0 0 l 0 174 l 694 174 l 694 347 l 174 347 q 50 397 100 347 q 0 521 0 449 l 0 694 q 50 817 0 766 q 174 868 102 868 l 694 868 q 817 817 766 868 q 868 694 868 765 l 868 174 q 817 50 868 100 q 694 0 765 0 l 0 0 z "}," ":{"ha":347,"x_min":0,"x_max":0,"o":""},"!":{"ha":808,"x_min":347,"x_max":521,"o":"m 347 0 l 347 174 l 521 174 l 521 0 l 347 0 m 347 347 l 347 868 l 521 868 l 521 347 l 347 347 z "},"\"":{"ha":808,"x_min":0,"x_max":521,"o":"m 0 521 l 0 868 l 174 868 l 174 521 l 0 521 m 347 521 l 347 868 l 521 868 l 521 521 l 347 521 z "},"#":{"ha":1156,"x_min":0,"x_max":868,"o":"m 521 347 l 521 521 l 347 521 l 347 347 l 521 347 m 174 0 l 174 174 l 0 174 l 0 347 l 174 347 l 174 521 l 0 521 l 0 694 l 174 694 l 174 868 l 347 868 l 347 694 l 521 694 l 521 868 l 694 868 l 694 694 l 868 694 l 868 521 l 694 521 l 694 347 l 868 347 l 868 174 l 694 174 l 694 0 l 521 0 l 521 174 l 347 174 l 347 0 l 174 0 z "},"$":{"ha":1156,"x_min":0,"x_max":868,"o":"m 694 174 l 694 347 l 521 347 l 521 174 l 694 174 m 347 521 l 347 694 l 174 694 l 174 521 l 347 521 m 0 0 l 0 174 l 347 174 l 347 347 l 174 347 q 50 397 100 347 q 0 521 0 449 l 0 694 q 50 817 0 766 q 174 868 102 868 l 868 868 l 868 694 l 521 694 l 521 521 l 694 521 q 817 469 766 521 q 868 347 868 418 l 868 174 q 817 50 868 100 q 694 0 765 0 l 0 0 z "},"%":{"ha":982,"x_min":0,"x_max":694,"o":"m 521 0 l 521 174 l 694 174 l 694 0 l 521 0 m 0 694 l 0 868 l 174 868 l 174 694 l 0 694 m 0 0 l 0 347 q 50 469 0 419 q 174 521 102 521 l 521 521 l 521 868 l 694 868 l 694 521 q 643 397 694 448 q 521 347 591 347 l 174 347 l 174 0 l 0 0 z "},"&":{"ha":1156,"x_min":0,"x_max":868,"o":"m 521 174 l 521 347 l 174 347 l 174 174 l 521 174 m 521 521 l 521 694 l 347 694 l 347 521 l 521 521 m 0 0 l 0 521 l 174 521 l 174 868 l 521 868 q 643 817 593 868 q 694 694 694 765 l 694 521 q 669 458 694 484 q 608 434 643 434 q 669 408 643 434 q 694 347 694 382 l 694 174 l 868 174 q 817 50 868 100 q 694 0 765 0 l 0 0 z "},"'":{"ha":461,"x_min":0,"x_max":174,"o":"m 0 521 l 0 868 l 174 868 l 174 521 l 0 521 z "},"(":{"ha":635,"x_min":0,"x_max":347,"o":"m 174 0 q 50 50 100 0 q 0 174 0 102 l 0 694 q 50 817 0 766 q 174 868 102 868 l 347 868 l 347 694 l 174 694 l 174 174 l 347 174 l 347 0 l 174 0 z "},")":{"ha":635,"x_min":0,"x_max":347,"o":"m 0 0 l 0 174 l 174 174 l 174 694 l 0 694 l 0 868 l 174 868 q 296 817 245 868 q 347 694 347 765 l 347 174 q 296 50 347 100 q 174 0 244 0 l 0 0 z "},"*":{"ha":808,"x_min":0,"x_max":521,"o":"m 174 347 l 174 521 q 50 571 100 521 q 0 694 0 623 l 174 694 q 224 817 174 766 q 347 868 275 868 l 347 694 q 469 643 419 694 q 521 521 521 591 l 347 521 q 296 397 347 448 q 174 347 244 347 l 174 347 z "},"+":{"ha":1156,"x_min":0,"x_max":868,"o":"m 347 0 l 347 347 l 0 347 l 0 521 l 347 521 l 347 868 l 521 868 l 521 521 l 868 521 l 868 347 l 521 347 l 521 0 l 347 0 z "},",":{"ha":461,"x_min":0,"x_max":174,"o":"m 0 -174 l 0 174 l 174 174 l 174 0 q 122 -122 174 -72 q 0 -174 71 -174 l 0 -174 z "},"-":{"ha":1156,"x_min":0,"x_max":868,"o":"m 0 347 l 0 521 l 868 521 l 868 347 l 0 347 z "},".":{"ha":461,"x_min":0,"x_max":174,"o":"m 0 0 l 0 174 l 174 174 l 174 0 l 0 0 z "},"/":{"ha":635,"x_min":0,"x_max":347,"o":"m 0 0 l 0 347 q 50 469 0 419 q 174 521 102 521 l 174 868 l 347 868 l 347 521 q 296 397 347 448 q 174 347 244 347 l 174 0 l 0 0 z "},":":{"ha":461,"x_min":0,"x_max":174,"o":"m 0 0 l 0 174 l 174 174 l 174 0 l 0 0 m 0 694 l 0 868 l 174 868 l 174 694 l 0 694 z "},";":{"ha":461,"x_min":0,"x_max":174,"o":"m 0 -174 l 0 174 l 174 174 l 174 0 q 122 -122 174 -72 q 0 -174 71 -174 l 0 -174 m 0 694 l 0 868 l 174 868 l 174 694 l 0 694 z "},"<":{"ha":808,"x_min":0,"x_max":521,"o":"m 174 174 q 50 224 100 174 q 0 347 0 275 l 0 521 q 50 643 0 593 q 174 694 102 694 l 521 694 l 521 521 l 174 521 l 174 347 l 521 347 l 521 174 l 174 174 z "},"=":{"ha":1156,"x_min":0,"x_max":868,"o":"m 0 174 l 0 347 l 868 347 l 868 174 l 0 174 m 0 521 l 0 694 l 868 694 l 868 521 l 0 521 z "},">":{"ha":808,"x_min":0,"x_max":521,"o":"m 0 174 l 0 347 l 347 347 l 347 521 l 0 521 l 0 694 l 347 694 q 469 643 419 694 q 521 521 521 591 l 521 347 q 469 224 521 274 q 347 174 418 174 l 0 174 z "},"?":{"ha":1156,"x_min":0,"x_max":868,"o":"m 347 0 l 347 174 l 521 174 l 521 0 l 347 0 m 347 347 l 347 521 l 694 521 l 694 694 l 174 694 l 174 521 l 0 521 l 0 694 q 50 817 0 766 q 174 868 102 868 l 694 868 q 817 817 766 868 q 868 694 868 765 l 868 521 q 817 397 868 448 q 694 347 765 347 l 347 347 z "},"@":{"ha":1156,"x_min":0,"x_max":868,"o":"m 0 0 l 0 694 q 50 817 0 766 q 174 868 102 868 l 694 868 q 817 817 766 868 q 868 694 868 765 l 868 174 q 817 50 868 100 q 694 0 765 0 l 521 0 q 397 50 448 0 q 347 174 347 102 l 347 521 l 521 521 l 521 174 l 694 174 l 694 694 l 174 694 l 174 0 l 0 0 z "},"A":{"ha":1156,"x_min":0,"x_max":868,"o":"m 694 521 l 694 694 l 174 694 l 174 521 l 694 521 m 0 0 l 0 694 q 50 817 0 766 q 174 868 102 868 l 694 868 q 817 817 766 868 q 868 694 868 765 l 868 0 l 694 0 l 694 347 l 174 347 l 174 0 l 0 0 z "},"B":{"ha":1156,"x_min":0,"x_max":868,"o":"m 694 174 l 694 347 l 174 347 l 174 174 l 694 174 m 694 521 l 694 694 l 174 694 l 174 521 l 694 521 m 0 0 l 0 868 l 694 868 q 817 817 766 868 q 868 694 868 765 l 868 521 q 842 458 868 484 q 781 434 817 434 q 842 408 817 434 q 868 347 868 382 l 868 174 q 817 50 868 100 q 694 0 765 0 l 0 0 z "},"C":{"ha":1156,"x_min":0,"x_max":868,"o":"m 174 0 q 50 50 100 0 q 0 174 0 102 l 0 694 q 50 817 0 766 q 174 868 102 868 l 694 868 q 817 817 766 868 q 868 694 868 765 l 868 521 l 694 521 l 694 694 l 174 694 l 174 174 l 694 174 l 694 347 l 868 347 l 868 174 q 817 50 868 100 q 694 0 765 0 l 174 0 z "},"D":{"ha":1156,"x_min":0,"x_max":868,"o":"m 694 174 l 694 694 l 174 694 l 174 174 l 694 174 m 0 0 l 0 868 l 694 868 q 817 817 766 868 q 868 694 868 765 l 868 174 q 817 50 868 100 q 694 0 765 0 l 0 0 z "},"E":{"ha":1156,"x_min":0,"x_max":868,"o":"m 174 0 q 50 50 100 0 q 0 174 0 102 l 0 694 q 50 817 0 766 q 174 868 102 868 l 868 868 l 868 694 l 174 694 l 174 521 l 868 521 l 868 347 l 174 347 l 174 174 l 868 174 l 868 0 l 174 0 z "},"F":{"ha":1156,"x_min":0,"x_max":868,"o":"m 0 0 l 0 694 q 50 817 0 766 q 174 868 102 868 l 868 868 l 868 694 l 174 694 l 174 521 l 868 521 l 868 347 l 174 347 l 174 0 l 0 0 z "},"G":{"ha":1156,"x_min":0,"x_max":868,"o":"m 174 0 q 50 50 100 0 q 0 174 0 102 l 0 694 q 50 817 0 766 q 174 868 102 868 l 868 868 l 868 694 l 174 694 l 174 174 l 694 174 l 694 347 l 347 347 l 347 521 l 694 521 q 817 469 766 521 q 868 347 868 418 l 868 174 q 817 50 868 100 q 694 0 765 0 l 174 0 z "},"H":{"ha":1156,"x_min":0,"x_max":868,"o":"m 0 0 l 0 868 l 174 868 l 174 521 l 694 521 l 694 868 l 868 868 l 868 0 l 694 0 l 694 347 l 174 347 l 174 0 l 0 0 z "},"I":{"ha":461,"x_min":0,"x_max":174,"o":"m 0 0 l 0 868 l 174 868 l 174 0 l 0 0 z "},"J":{"ha":982,"x_min":0,"x_max":694,"o":"m 0 0 l 0 174 l 521 174 l 521 868 l 694 868 l 694 174 q 643 50 694 100 q 521 0 591 0 l 0 0 z "},"K":{"ha":1156,"x_min":0,"x_max":868,"o":"m 0 0 l 0 868 l 174 868 l 174 521 l 694 521 l 694 868 l 868 868 l 868 521 q 842 458 868 484 q 781 434 817 434 q 842 408 817 434 q 868 347 868 382 l 868 0 l 694 0 l 694 347 l 174 347 l 174 0 l 0 0 z "},"L":{"ha":1156,"x_min":0,"x_max":868,"o":"m 174 0 q 50 50 100 0 q 0 174 0 102 l 0 868 l 174 868 l 174 174 l 868 174 l 868 0 l 174 0 z "},"M":{"ha":1503,"x_min":0,"x_max":1215,"o":"m 0 0 l 0 868 l 1042 868 q 1164 817 1114 868 q 1215 694 1215 765 l 1215 0 l 1042 0 l 1042 694 l 694 694 l 694 0 l 521 0 l 521 694 l 174 694 l 174 0 l 0 0 z "},"N":{"ha":1156,"x_min":0,"x_max":868,"o":"m 0 0 l 0 868 l 694 868 q 817 817 766 868 q 868 694 868 765 l 868 0 l 694 0 l 694 694 l 174 694 l 174 0 l 0 0 z "},"O":{"ha":1156,"x_min":0,"x_max":868,"o":"m 694 174 l 694 694 l 174 694 l 174 174 l 694 174 m 174 0 q 50 50 100 0 q 0 174 0 102 l 0 694 q 50 817 0 766 q 174 868 102 868 l 694 868 q 817 817 766 868 q 868 694 868 765 l 868 174 q 817 50 868 100 q 694 0 765 0 l 174 0 z "},"P":{"ha":1156,"x_min":0,"x_max":868,"o":"m 694 521 l 694 694 l 174 694 l 174 521 l 694 521 m 0 0 l 0 868 l 694 868 q 817 817 766 868 q 868 694 868 765 l 868 521 q 817 397 868 448 q 694 347 765 347 l 174 347 l 174 0 l 0 0 z "},"Q":{"ha":1156,"x_min":0,"x_max":868,"o":"m 521 174 q 571 296 521 245 q 694 347 623 347 l 694 694 l 174 694 l 174 174 l 521 174 m 174 0 q 50 50 100 0 q 0 174 0 102 l 0 694 q 50 817 0 766 q 174 868 102 868 l 694 868 q 817 817 766 868 q 868 694 868 765 l 868 174 q 745 122 796 174 q 694 0 694 71 l 174 0 z "},"R":{"ha":1156,"x_min":0,"x_max":868,"o":"m 694 521 l 694 694 l 174 694 l 174 521 l 694 521 m 0 0 l 0 868 l 694 868 q 817 817 766 868 q 868 694 868 765 l 868 521 q 842 458 868 484 q 781 434 817 434 q 842 408 817 434 q 868 347 868 382 l 868 0 l 694 0 l 694 347 l 174 347 l 174 0 l 0 0 z "},"S":{"ha":1156,"x_min":0,"x_max":868,"o":"m 0 0 l 0 174 l 694 174 l 694 347 l 174 347 q 50 397 100 347 q 0 521 0 449 l 0 694 q 50 817 0 766 q 174 868 102 868 l 868 868 l 868 694 l 174 694 l 174 521 l 694 521 q 817 469 766 521 q 868 347 868 418 l 868 174 q 817 50 868 100 q 694 0 765 0 l 0 0 z "},"T":{"ha":1156,"x_min":0,"x_max":868,"o":"m 347 0 l 347 694 l 0 694 l 0 868 l 868 868 l 868 694 l 521 694 l 521 0 l 347 0 z "},"U":{"ha":1156,"x_min":0,"x_max":868,"o":"m 174 0 q 50 50 100 0 q 0 174 0 102 l 0 868 l 174 868 l 174 174 l 694 174 l 694 868 l 868 868 l 868 0 l 174 0 z "},"V":{"ha":1156,"x_min":0,"x_max":868,"o":"m 434 0 l 0 434 l 0 868 l 174 868 l 174 521 l 347 347 l 347 346 l 434 260 l 694 521 l 694 868 l 868 868 l 868 434 l 434 0 l 434 0 z "},"W":{"ha":1503,"x_min":0,"x_max":1215,"o":"m 174 0 q 50 50 100 0 q 0 174 0 102 l 0 868 l 174 868 l 174 174 l 521 174 l 521 868 l 694 868 l 694 174 l 1042 174 l 1042 868 l 1215 868 l 1215 174 q 1164 50 1215 100 q 1042 0 1112 0 l 174 0 z "},"X":{"ha":1156,"x_min":0,"x_max":868,"o":"m 0 0 l 0 347 q 24 408 0 382 q 87 434 50 434 q 24 458 50 434 q 0 521 0 484 l 0 868 l 174 868 l 174 521 l 694 521 l 694 868 l 868 868 l 868 521 q 842 458 868 484 q 781 434 817 434 q 842 408 817 434 q 868 347 868 382 l 868 0 l 694 0 l 694 347 l 174 347 l 174 0 l 0 0 z "},"Y":{"ha":1156,"x_min":0,"x_max":868,"o":"m 347 0 l 347 347 l 174 347 q 50 397 100 347 q 0 521 0 449 l 0 868 l 174 868 l 174 521 l 694 521 l 694 868 l 868 868 l 868 521 q 817 397 868 448 q 694 347 765 347 l 521 347 l 521 0 l 347 0 z "},"Z":{"ha":1156,"x_min":0,"x_max":868,"o":"m 0 0 l 0 347 q 50 469 0 419 q 174 521 102 521 l 694 521 l 694 694 l 0 694 l 0 868 l 868 868 l 868 521 q 817 397 868 448 q 694 347 765 347 l 174 347 l 174 174 l 868 174 l 868 0 l 0 0 z "},"[":{"ha":635,"x_min":0,"x_max":347,"o":"m 0 0 l 0 868 l 347 868 l 347 694 l 174 694 l 174 174 l 347 174 l 347 0 l 0 0 z "},"\\":{"ha":635,"x_min":0,"x_max":347,"o":"m 174 0 l 174 347 q 50 397 100 347 q 0 521 0 449 l 0 868 l 174 868 l 174 521 q 296 469 245 521 q 347 347 347 418 l 347 0 l 174 0 z "},"]":{"ha":635,"x_min":0,"x_max":347,"o":"m 0 0 l 0 174 l 174 174 l 174 694 l 0 694 l 0 868 l 347 868 l 347 0 l 0 0 z "},"^":{"ha":808,"x_min":0,"x_max":521,"o":"m 0 521 l 0 694 q 50 817 0 766 q 174 868 102 868 l 347 868 q 469 817 419 868 q 521 694 521 765 l 521 521 l 347 521 l 347 694 l 174 694 l 174 521 l 0 521 z "},"_":{"ha":1156,"x_min":0,"x_max":868,"o":"m 0 0 l 0 174 l 868 174 l 868 0 l 0 0 z "},"`":{"ha":461,"x_min":0,"x_max":174,"o":"m 0 521 l 0 868 l 174 868 l 174 521 l 0 521 z "},"a":{"ha":1156,"x_min":0,"x_max":868,"o":"m 694 521 l 694 694 l 174 694 l 174 521 l 694 521 m 0 0 l 0 694 q 50 817 0 766 q 174 868 102 868 l 694 868 q 817 817 766 868 q 868 694 868 765 l 868 0 l 694 0 l 694 347 l 174 347 l 174 0 l 0 0 z "},"b":{"ha":1156,"x_min":0,"x_max":868,"o":"m 694 174 l 694 347 l 174 347 l 174 174 l 694 174 m 694 521 l 694 694 l 174 694 l 174 521 l 694 521 m 0 0 l 0 868 l 694 868 q 817 817 766 868 q 868 694 868 765 l 868 521 q 842 458 868 484 q 781 434 817 434 q 842 408 817 434 q 868 347 868 382 l 868 174 q 817 50 868 100 q 694 0 765 0 l 0 0 z "},"c":{"ha":1156,"x_min":0,"x_max":868,"o":"m 174 0 q 50 50 100 0 q 0 174 0 102 l 0 694 q 50 817 0 766 q 174 868 102 868 l 694 868 q 817 817 766 868 q 868 694 868 765 l 868 521 l 694 521 l 694 694 l 174 694 l 174 174 l 694 174 l 694 347 l 868 347 l 868 174 q 817 50 868 100 q 694 0 765 0 l 174 0 z "},"d":{"ha":1156,"x_min":0,"x_max":868,"o":"m 694 174 l 694 694 l 174 694 l 174 174 l 694 174 m 0 0 l 0 868 l 694 868 q 817 817 766 868 q 868 694 868 765 l 868 174 q 817 50 868 100 q 694 0 765 0 l 0 0 z "},"e":{"ha":1156,"x_min":0,"x_max":868,"o":"m 174 0 q 50 50 100 0 q 0 174 0 102 l 0 694 q 50 817 0 766 q 174 868 102 868 l 868 868 l 868 694 l 174 694 l 174 521 l 868 521 l 868 347 l 174 347 l 174 174 l 868 174 l 868 0 l 174 0 z "},"f":{"ha":1156,"x_min":0,"x_max":868,"o":"m 0 0 l 0 694 q 50 817 0 766 q 174 868 102 868 l 868 868 l 868 694 l 174 694 l 174 521 l 868 521 l 868 347 l 174 347 l 174 0 l 0 0 z "},"g":{"ha":1156,"x_min":0,"x_max":868,"o":"m 174 0 q 50 50 100 0 q 0 174 0 102 l 0 694 q 50 817 0 766 q 174 868 102 868 l 868 868 l 868 694 l 174 694 l 174 174 l 694 174 l 694 347 l 347 347 l 347 521 l 694 521 q 817 469 766 521 q 868 347 868 418 l 868 174 q 817 50 868 100 q 694 0 765 0 l 174 0 z "},"h":{"ha":1156,"x_min":0,"x_max":868,"o":"m 0 0 l 0 868 l 174 868 l 174 521 l 694 521 l 694 868 l 868 868 l 868 0 l 694 0 l 694 347 l 174 347 l 174 0 l 0 0 z "},"i":{"ha":461,"x_min":0,"x_max":174,"o":"m 0 0 l 0 868 l 174 868 l 174 0 l 0 0 z "},"j":{"ha":982,"x_min":0,"x_max":694,"o":"m 0 0 l 0 174 l 521 174 l 521 868 l 694 868 l 694 174 q 643 50 694 100 q 521 0 591 0 l 0 0 z "},"k":{"ha":1156,"x_min":0,"x_max":868,"o":"m 0 0 l 0 868 l 174 868 l 174 521 l 694 521 l 694 868 l 868 868 l 868 521 q 842 458 868 484 q 781 434 817 434 q 842 408 817 434 q 868 347 868 382 l 868 0 l 694 0 l 694 347 l 174 347 l 174 0 l 0 0 z "},"l":{"ha":1156,"x_min":0,"x_max":868,"o":"m 174 0 q 50 50 100 0 q 0 174 0 102 l 0 868 l 174 868 l 174 174 l 868 174 l 868 0 l 174 0 z "},"m":{"ha":1503,"x_min":0,"x_max":1215,"o":"m 0 0 l 0 868 l 1042 868 q 1164 817 1114 868 q 1215 694 1215 765 l 1215 0 l 1042 0 l 1042 694 l 694 694 l 694 0 l 521 0 l 521 694 l 174 694 l 174 0 l 0 0 z "},"n":{"ha":1156,"x_min":0,"x_max":868,"o":"m 0 0 l 0 868 l 694 868 q 817 817 766 868 q 868 694 868 765 l 868 0 l 694 0 l 694 694 l 174 694 l 174 0 l 0 0 z "},"o":{"ha":1156,"x_min":0,"x_max":868,"o":"m 694 174 l 694 694 l 174 694 l 174 174 l 694 174 m 174 0 q 50 50 100 0 q 0 174 0 102 l 0 694 q 50 817 0 766 q 174 868 102 868 l 694 868 q 817 817 766 868 q 868 694 868 765 l 868 174 q 817 50 868 100 q 694 0 765 0 l 174 0 z "},"p":{"ha":1156,"x_min":0,"x_max":868,"o":"m 694 521 l 694 694 l 174 694 l 174 521 l 694 521 m 0 0 l 0 694 q 50 817 0 766 q 174 868 102 868 l 694 868 q 817 817 766 868 q 868 694 868 765 l 868 521 q 817 397 868 448 q 694 347 765 347 l 174 347 l 174 0 l 0 0 z "},"q":{"ha":1156,"x_min":0,"x_max":868,"o":"m 694 174 l 694 694 l 174 694 l 174 174 l 694 174 m 694 -174 l 694 0 l 174 0 q 50 50 100 0 q 0 174 0 102 l 0 694 q 50 817 0 766 q 174 868 102 868 l 694 868 q 817 817 766 868 q 868 694 868 765 l 868 -174 l 694 -174 z "},"r":{"ha":1156,"x_min":0,"x_max":868,"o":"m 694 521 l 694 694 l 174 694 l 174 521 l 694 521 m 0 0 l 0 868 l 694 868 q 817 817 766 868 q 868 694 868 765 l 868 521 q 842 458 868 484 q 781 434 817 434 q 842 408 817 434 q 868 347 868 382 l 868 0 l 694 0 l 694 347 l 174 347 l 174 0 l 0 0 z "},"s":{"ha":1156,"x_min":0,"x_max":868,"o":"m 0 0 l 0 174 l 694 174 l 694 347 l 174 347 q 50 397 100 347 q 0 521 0 449 l 0 694 q 50 817 0 766 q 174 868 102 868 l 868 868 l 868 694 l 174 694 l 174 521 l 694 521 q 817 469 766 521 q 868 347 868 418 l 868 174 q 817 50 868 100 q 694 0 765 0 l 0 0 z "},"t":{"ha":1156,"x_min":0,"x_max":868,"o":"m 347 0 l 347 694 l 0 694 l 0 868 l 868 868 l 868 694 l 521 694 l 521 0 l 347 0 z "},"u":{"ha":1156,"x_min":0,"x_max":868,"o":"m 174 0 q 50 50 100 0 q 0 174 0 102 l 0 868 l 174 868 l 174 174 l 694 174 l 694 868 l 868 868 l 868 0 l 174 0 z "},"v":{"ha":1156,"x_min":0,"x_max":868,"o":"m 434 0 l 0 434 l 0 868 l 174 868 l 174 521 l 347 347 l 347 346 l 434 260 l 694 521 l 694 868 l 868 868 l 868 434 l 434 0 l 434 0 z "},"w":{"ha":1503,"x_min":0,"x_max":1215,"o":"m 174 0 q 50 50 100 0 q 0 174 0 102 l 0 868 l 174 868 l 174 174 l 521 174 l 521 868 l 694 868 l 694 174 l 1042 174 l 1042 868 l 1215 868 l 1215 174 q 1164 50 1215 100 q 1042 0 1112 0 l 174 0 z "},"x":{"ha":1156,"x_min":0,"x_max":868,"o":"m 0 0 l 0 347 q 24 408 0 382 q 87 434 50 434 q 24 458 50 434 q 0 521 0 484 l 0 868 l 174 868 l 174 521 l 694 521 l 694 868 l 868 868 l 868 521 q 842 458 868 484 q 781 434 817 434 q 842 408 817 434 q 868 347 868 382 l 868 0 l 694 0 l 694 347 l 174 347 l 174 0 l 0 0 z "},"y":{"ha":1156,"x_min":0,"x_max":868,"o":"m 347 0 l 347 347 l 174 347 q 50 397 100 347 q 0 521 0 449 l 0 868 l 174 868 l 174 521 l 694 521 l 694 868 l 868 868 l 868 521 q 817 397 868 448 q 694 347 765 347 l 521 347 l 521 0 l 347 0 z "},"z":{"ha":1156,"x_min":0,"x_max":868,"o":"m 0 0 l 0 347 q 50 469 0 419 q 174 521 102 521 l 694 521 l 694 694 l 0 694 l 0 868 l 868 868 l 868 521 q 817 397 868 448 q 694 347 765 347 l 174 347 l 174 174 l 868 174 l 868 0 l 0 0 z "},"{":{"ha":808,"x_min":87,"x_max":521,"o":"m 347 0 q 224 50 274 0 q 174 174 174 102 l 174 347 q 111 372 137 347 q 87 434 87 397 q 111 495 87 469 q 174 521 137 521 l 174 694 q 224 817 174 766 q 347 868 275 868 l 521 868 l 521 694 l 347 694 l 347 174 l 521 174 l 521 0 l 347 0 z "},"|":{"ha":461,"x_min":0,"x_max":174,"o":"m 0 0 l 0 868 l 174 868 l 174 0 l 0 0 z "},"}":{"ha":808,"x_min":0,"x_max":434,"o":"m 0 0 l 0 174 l 174 174 l 174 694 l 0 694 l 0 868 l 174 868 q 296 817 245 868 q 347 694 347 765 l 347 521 q 408 495 382 521 q 434 434 434 469 q 408 372 434 397 q 347 347 382 347 l 347 174 q 296 50 347 100 q 174 0 244 0 l 0 0 z "},"~":{"ha":1156,"x_min":0,"x_max":868,"o":"m 0 347 l 0 521 q 50 643 0 593 q 174 694 102 694 l 347 694 q 469 643 419 694 q 521 521 521 591 l 694 521 l 694 694 l 868 694 l 868 521 q 817 397 868 448 q 694 347 765 347 l 521 347 q 397 397 448 347 q 347 521 347 449 l 174 521 l 174 347 l 0 347 z "},"¡":{"ha":461,"x_min":0,"x_max":174,"o":"m 0 0 l 0 521 l 174 521 l 174 0 l 0 0 m 0 694 l 0 868 l 174 868 l 174 694 l 0 694 z "},"¢":{"ha":808,"x_min":0,"x_max":521,"o":"m 174 0 l 174 174 q 50 224 100 174 q 0 347 0 275 l 0 521 q 50 643 0 593 q 174 694 102 694 l 174 868 l 347 868 l 347 694 q 469 643 419 694 q 521 521 521 591 l 174 521 l 174 347 l 521 347 q 469 224 521 274 q 347 174 418 174 l 347 0 l 174 0 z "},"£":{"ha":1156,"x_min":-174,"x_max":868,"o":"m 0 0 l 0 347 l -174 347 l -174 521 l 0 521 l 0 694 q 50 817 0 766 q 174 868 102 868 l 521 868 q 643 817 593 868 q 694 694 694 765 l 174 694 l 174 521 l 521 521 l 521 347 l 174 347 l 174 174 l 868 174 l 868 0 l 0 0 z "},"¤":{"ha":1156,"x_min":0,"x_max":868,"o":"m 0 0 l 0 174 l 174 174 l 174 0 l 0 0 m 694 0 l 694 174 l 868 174 l 868 0 l 694 0 m 521 347 l 521 521 l 347 521 l 347 347 l 521 347 m 347 174 q 224 224 274 174 q 174 347 174 275 l 174 521 q 224 643 174 593 q 347 694 275 694 l 521 694 q 643 643 593 694 q 694 521 694 591 l 694 347 q 643 224 694 274 q 521 174 591 174 l 347 174 m 0 694 l 0 868 l 174 868 l 174 694 l 0 694 m 694 694 l 694 868 l 868 868 l 868 694 l 694 694 z "},"¥":{"ha":1156,"x_min":0,"x_max":868,"o":"m 347 0 l 347 174 l 174 174 q 224 296 174 245 q 347 347 275 347 l 174 347 q 50 397 100 347 q 0 521 0 449 l 0 868 l 174 868 l 174 521 l 694 521 l 694 868 l 868 868 l 868 521 q 817 397 868 448 q 694 347 765 347 l 521 347 q 643 296 593 347 q 694 174 694 244 l 521 174 l 521 0 l 347 0 z "},"¦":{"ha":461,"x_min":0,"x_max":174,"o":"m 0 0 l 0 347 l 174 347 l 174 0 l 0 0 m 0 521 l 0 868 l 174 868 l 174 521 l 0 521 z "},"§":{"ha":1156,"x_min":0,"x_max":868,"o":"m 0 0 l 0 174 l 694 174 l 694 347 l 521 347 l 521 521 l 694 521 q 817 469 766 521 q 868 347 868 418 l 868 174 q 817 50 868 100 q 694 0 765 0 l 0 0 m 174 347 q 50 397 100 347 q 0 521 0 449 l 0 694 q 50 817 0 766 q 174 868 102 868 l 868 868 l 868 694 l 174 694 l 174 521 l 347 521 l 347 347 l 174 347 z "},"¨":{"ha":1156,"x_min":0,"x_max":868,"o":"m 87 694 q 24 719 50 694 q 0 781 0 745 q 24 842 0 817 q 87 868 50 868 q 148 842 122 868 q 174 781 174 817 q 148 719 174 745 q 87 694 122 694 l 87 694 m 781 694 q 719 719 745 694 q 694 781 694 745 q 719 842 694 817 q 781 868 745 868 q 842 842 817 868 q 868 781 868 817 q 842 719 868 745 q 781 694 817 694 l 781 694 z "},"©":{"ha":1156,"x_min":0,"x_max":868,"o":"m 434 347 q 372 372 397 347 q 347 434 347 397 q 372 495 347 469 q 434 521 397 521 l 521 521 l 521 347 l 434 347 m 694 174 l 694 694 l 174 694 l 174 174 l 694 174 m 174 0 q 50 50 100 0 q 0 174 0 102 l 0 694 q 50 817 0 766 q 174 868 102 868 l 694 868 q 817 817 766 868 q 868 694 868 765 l 868 174 q 817 50 868 100 q 694 0 765 0 l 174 0 z "},"ª":{"ha":808,"x_min":0,"x_max":521,"o":"m 347 521 l 347 694 l 174 694 l 174 521 l 347 521 m 174 347 q 50 397 100 347 q 0 521 0 449 l 0 694 q 50 817 0 766 q 174 868 102 868 l 521 868 l 521 347 l 174 347 z "},"«":{"ha":1156,"x_min":0,"x_max":868,"o":"m 174 174 q 50 224 100 174 q 0 347 0 275 l 0 521 q 50 643 0 593 q 174 694 102 694 l 347 694 l 347 521 l 174 521 l 174 347 l 347 347 l 347 174 l 174 174 m 694 174 q 571 224 621 174 q 521 347 521 275 l 521 521 q 571 643 521 593 q 694 694 623 694 l 868 694 l 868 521 l 694 521 l 694 347 l 868 347 l 868 174 l 694 174 z "},"¬":{"ha":1156,"x_min":0,"x_max":868,"o":"m 694 174 l 694 347 l 0 347 l 0 521 l 868 521 l 868 174 l 694 174 z "},"®":{"ha":1156,"x_min":0,"x_max":868,"o":"m 347 347 l 347 521 l 434 521 q 495 495 469 521 q 521 434 521 469 l 521 347 l 347 347 m 694 174 l 694 694 l 174 694 l 174 174 l 694 174 m 174 0 q 50 50 100 0 q 0 174 0 102 l 0 694 q 50 817 0 766 q 174 868 102 868 l 694 868 q 817 817 766 868 q 868 694 868 765 l 868 174 q 817 50 868 100 q 694 0 765 0 l 174 0 z "},"¯":{"ha":1156,"x_min":0,"x_max":868,"o":"m 0 694 l 0 868 l 868 868 l 868 694 l 0 694 z "},"°":{"ha":808,"x_min":0,"x_max":521,"o":"m 347 521 l 347 694 l 174 694 l 174 521 l 347 521 m 174 347 q 50 397 100 347 q 0 521 0 449 l 0 694 q 50 817 0 766 q 174 868 102 868 l 347 868 q 469 817 419 868 q 521 694 521 765 l 521 521 q 469 397 521 448 q 347 347 418 347 l 174 347 z "},"±":{"ha":808,"x_min":0,"x_max":521,"o":"m 0 0 l 0 174 l 521 174 l 521 0 l 0 0 m 174 347 l 174 521 l 0 521 l 0 694 l 174 694 l 174 868 l 347 868 l 347 694 l 521 694 l 521 521 l 347 521 l 347 347 l 174 347 z "},"²":{"ha":635,"x_min":0,"x_max":347,"o":"m 0 347 l 0 521 q 50 643 0 593 q 174 694 102 694 l 0 694 l 0 868 l 174 868 q 296 817 245 868 q 347 694 347 765 q 296 571 347 621 q 174 521 244 521 l 347 521 l 347 347 l 0 347 z "},"³":{"ha":635,"x_min":0,"x_max":347,"o":"m 0 347 l 0 521 q 24 582 0 556 q 87 608 50 608 q 24 632 50 608 q 0 694 0 658 l 0 868 l 174 868 q 296 817 245 868 q 347 694 347 765 l 347 521 q 296 397 347 448 q 174 347 244 347 l 0 347 z "},"´":{"ha":635,"x_min":0,"x_max":347,"o":"m 0 694 q 50 817 0 766 q 174 868 102 868 l 347 868 l 347 694 l 0 694 z "},"µ":{"ha":982,"x_min":0,"x_max":694,"o":"m 0 0 l 0 868 l 174 868 l 174 521 l 521 521 l 521 868 l 694 868 l 694 521 q 643 397 694 448 q 521 347 591 347 l 174 347 l 174 0 l 0 0 z "},"¶":{"ha":982,"x_min":0,"x_max":694,"o":"m 174 0 l 174 347 q 50 397 100 347 q 0 521 0 449 l 0 694 q 50 817 0 766 q 174 868 102 868 l 694 868 l 694 0 l 521 0 l 521 694 l 347 694 l 347 0 l 174 0 z "},"·":{"ha":461,"x_min":0,"x_max":174,"o":"m 0 347 l 0 521 l 174 521 l 174 347 l 0 347 z "},"¸":{"ha":635,"x_min":0,"x_max":347,"o":"m 174 -347 l 174 -174 l 0 -174 l 0 174 l 174 174 l 174 0 q 296 -50 245 0 q 347 -174 347 -102 q 296 -296 347 -245 q 174 -347 244 -347 l 174 -347 z "},"¹":{"ha":461,"x_min":0,"x_max":174,"o":"m 0 521 l 0 868 l 174 868 l 174 521 l 0 521 z "},"º":{"ha":461,"x_min":0,"x_max":174,"o":"m 87 694 q 24 719 50 694 q 0 781 0 745 q 24 842 0 817 q 87 868 50 868 q 148 842 122 868 q 174 781 174 817 q 148 719 174 745 q 87 694 122 694 l 87 694 z "},"»":{"ha":1156,"x_min":0,"x_max":868,"o":"m 0 174 l 0 347 l 174 347 l 174 521 l 0 521 l 0 694 l 174 694 q 296 643 245 694 q 347 521 347 591 l 347 347 q 296 224 347 274 q 174 174 244 174 l 0 174 m 521 174 l 521 347 l 694 347 l 694 521 l 521 521 l 521 694 l 694 694 q 817 643 766 694 q 868 521 868 591 l 868 347 q 817 224 868 274 q 694 174 765 174 l 521 174 z "},"¼":{"ha":982,"x_min":0,"x_max":694,"o":"m 87 0 q 24 24 50 0 q 0 87 0 50 q 24 148 0 122 q 87 174 50 174 q 148 148 122 174 q 174 87 174 122 q 148 24 174 50 q 87 0 122 0 l 87 0 m 260 0 q 198 24 224 0 q 174 87 174 50 q 198 148 174 122 q 260 174 224 174 q 321 148 296 174 q 347 87 347 122 q 321 24 347 50 q 260 0 296 0 l 260 0 m 434 0 q 372 24 397 0 q 347 87 347 50 q 372 148 347 122 q 434 174 397 174 q 495 148 469 174 q 521 87 521 122 q 495 24 521 50 q 434 0 469 0 l 434 0 m 608 0 q 545 24 571 0 q 521 87 521 50 q 545 148 521 122 q 608 174 571 174 q 669 148 643 174 q 694 87 694 122 q 669 24 694 50 q 608 0 643 0 l 608 0 m 0 347 l 0 521 l 694 521 l 694 347 l 0 347 m 87 694 q 24 719 50 694 q 0 781 0 745 q 24 842 0 817 q 87 868 50 868 q 148 842 122 868 q 174 781 174 817 q 148 719 174 745 q 87 694 122 694 l 87 694 z "},"½":{"ha":982,"x_min":0,"x_max":694,"o":"m 434 0 q 372 24 397 0 q 347 87 347 50 q 372 148 347 122 q 434 174 397 174 q 495 148 469 174 q 521 87 521 122 q 495 24 521 50 q 434 0 469 0 l 434 0 m 608 0 q 545 24 571 0 q 521 87 521 50 q 545 148 521 122 q 608 174 571 174 q 669 148 643 174 q 694 87 694 122 q 669 24 694 50 q 608 0 643 0 l 608 0 m 0 347 l 0 521 l 694 521 l 694 347 l 0 347 m 87 694 q 24 719 50 694 q 0 781 0 745 q 24 842 0 817 q 87 868 50 868 q 148 842 122 868 q 174 781 174 817 q 148 719 174 745 q 87 694 122 694 l 87 694 z "},"¾":{"ha":982,"x_min":0,"x_max":694,"o":"m 87 0 q 24 24 50 0 q 0 87 0 50 q 24 148 0 122 q 87 174 50 174 q 148 148 122 174 q 174 87 174 122 q 148 24 174 50 q 87 0 122 0 l 87 0 m 260 0 q 198 24 224 0 q 174 87 174 50 q 198 148 174 122 q 260 174 224 174 q 321 148 296 174 q 347 87 347 122 q 321 24 347 50 q 260 0 296 0 l 260 0 m 434 0 q 372 24 397 0 q 347 87 347 50 q 372 148 347 122 q 434 174 397 174 q 495 148 469 174 q 521 87 521 122 q 495 24 521 50 q 434 0 469 0 l 434 0 m 608 0 q 545 24 571 0 q 521 87 521 50 q 545 148 521 122 q 608 174 571 174 q 669 148 643 174 q 694 87 694 122 q 669 24 694 50 q 608 0 643 0 l 608 0 m 0 347 l 0 521 l 694 521 l 694 347 l 0 347 m 87 694 q 24 719 50 694 q 0 781 0 745 q 24 842 0 817 q 87 868 50 868 q 148 842 122 868 q 174 781 174 817 q 148 719 174 745 q 87 694 122 694 l 87 694 m 260 694 q 198 719 224 694 q 174 781 174 745 q 198 842 174 817 q 260 868 224 868 q 321 842 296 868 q 347 781 347 817 q 321 719 347 745 q 260 694 296 694 l 260 694 m 434 694 q 372 719 397 694 q 347 781 347 745 q 372 842 347 817 q 434 868 397 868 q 495 842 469 868 q 521 781 521 817 q 495 719 521 745 q 434 694 469 694 l 434 694 z "},"¿":{"ha":1156,"x_min":0,"x_max":868,"o":"m 174 0 q 50 50 100 0 q 0 174 0 102 l 0 347 q 50 469 0 419 q 174 521 102 521 l 521 521 l 521 347 l 174 347 l 174 174 l 694 174 l 694 347 l 868 347 l 868 174 q 817 50 868 100 q 694 0 765 0 l 174 0 m 347 694 l 347 868 l 521 868 l 521 694 l 347 694 z "},"À":{"ha":1156,"x_min":0,"x_max":868,"o":"m 694 521 l 694 694 l 174 694 l 174 521 l 694 521 m 0 0 l 0 694 q 50 817 0 766 q 174 868 102 868 l 694 868 q 817 817 766 868 q 868 694 868 765 l 868 0 l 694 0 l 694 347 l 174 347 l 174 0 l 0 0 m 0 1042 l 0 1215 l 174 1215 q 296 1164 245 1215 q 347 1042 347 1112 l 0 1042 z "},"Á":{"ha":1156,"x_min":0,"x_max":868,"o":"m 694 521 l 694 694 l 174 694 l 174 521 l 694 521 m 0 0 l 0 694 q 50 817 0 766 q 174 868 102 868 l 694 868 q 817 817 766 868 q 868 694 868 765 l 868 0 l 694 0 l 694 347 l 174 347 l 174 0 l 0 0 m 521 1042 q 571 1164 521 1114 q 694 1215 623 1215 l 868 1215 l 868 1042 l 521 1042 z "},"Â":{"ha":1156,"x_min":0,"x_max":868,"o":"m 694 521 l 694 694 l 174 694 l 174 521 l 694 521 m 0 0 l 0 694 q 50 817 0 766 q 174 868 102 868 l 694 868 q 817 817 766 868 q 868 694 868 765 l 868 0 l 694 0 l 694 347 l 174 347 l 174 0 l 0 0 m 0 1042 q 50 1164 0 1114 q 174 1215 102 1215 l 694 1215 q 817 1164 766 1215 q 868 1042 868 1112 l 0 1042 z "},"Ã":{"ha":1156,"x_min":0,"x_max":868,"o":"m 694 521 l 694 694 l 174 694 l 174 521 l 694 521 m 0 0 l 0 694 q 50 817 0 766 q 174 868 102 868 l 694 868 q 817 817 766 868 q 868 694 868 765 l 868 0 l 694 0 l 694 347 l 174 347 l 174 0 l 0 0 m 0 1042 q 50 1164 0 1114 q 174 1215 102 1215 l 347 1215 q 408 1190 382 1215 q 434 1128 434 1164 q 408 1066 434 1092 q 347 1042 382 1042 l 0 1042 m 521 1042 q 458 1066 484 1042 q 434 1128 434 1092 q 458 1190 434 1164 q 521 1215 484 1215 l 868 1215 q 817 1092 868 1142 q 694 1042 765 1042 l 521 1042 z "},"Ä":{"ha":1156,"x_min":0,"x_max":868,"o":"m 694 521 l 694 694 l 174 694 l 174 521 l 694 521 m 0 0 l 0 694 q 50 817 0 766 q 174 868 102 868 l 694 868 q 817 817 766 868 q 868 694 868 765 l 868 0 l 694 0 l 694 347 l 174 347 l 174 0 l 0 0 m 87 1042 q 24 1066 50 1042 q 0 1128 0 1092 q 24 1190 0 1164 q 87 1215 50 1215 q 148 1190 122 1215 q 174 1128 174 1164 q 148 1066 174 1092 q 87 1042 122 1042 l 87 1042 m 781 1042 q 719 1066 745 1042 q 694 1128 694 1092 q 719 1190 694 1164 q 781 1215 745 1215 q 842 1190 817 1215 q 868 1128 868 1164 q 842 1066 868 1092 q 781 1042 817 1042 l 781 1042 z "},"Å":{"ha":1156,"x_min":0,"x_max":868,"o":"m 694 521 l 694 694 l 174 694 l 174 521 l 694 521 m 0 0 l 0 694 q 50 817 0 766 q 174 868 102 868 l 694 868 q 817 817 766 868 q 868 694 868 765 l 868 0 l 694 0 l 694 347 l 174 347 l 174 0 l 0 0 m 434 1042 q 372 1066 397 1042 q 347 1128 347 1092 q 372 1190 347 1164 q 434 1215 397 1215 q 495 1190 469 1215 q 521 1128 521 1164 q 495 1066 521 1092 q 434 1042 469 1042 l 434 1042 z "},"Æ":{"ha":1329,"x_min":0,"x_max":1042,"o":"m 521 521 l 521 694 l 174 694 l 174 521 l 521 521 m 0 0 l 0 694 q 50 817 0 766 q 174 868 102 868 l 1042 868 l 1042 694 l 694 694 l 694 521 l 1042 521 l 1042 347 l 694 347 l 694 174 l 1042 174 l 1042 0 l 694 0 q 571 50 621 0 q 521 174 521 102 l 521 347 l 174 347 l 174 0 l 0 0 z "},"Ç":{"ha":1156,"x_min":0,"x_max":868,"o":"m 347 -174 l 347 0 l 174 0 q 50 50 100 0 q 0 174 0 102 l 0 694 q 50 817 0 766 q 174 868 102 868 l 694 868 q 817 817 766 868 q 868 694 868 765 l 868 521 l 694 521 l 694 694 l 174 694 l 174 174 l 694 174 l 694 347 l 868 347 l 868 174 q 817 50 868 100 q 694 0 765 0 l 521 0 q 469 -122 521 -72 q 347 -174 418 -174 l 347 -174 z "},"È":{"ha":1156,"x_min":0,"x_max":868,"o":"m 174 0 q 50 50 100 0 q 0 174 0 102 l 0 694 q 50 817 0 766 q 174 868 102 868 l 868 868 l 868 694 l 174 694 l 174 521 l 868 521 l 868 347 l 174 347 l 174 174 l 868 174 l 868 0 l 174 0 m 0 1042 l 0 1215 l 174 1215 q 296 1164 245 1215 q 347 1042 347 1112 l 0 1042 z "},"É":{"ha":1156,"x_min":0,"x_max":868,"o":"m 174 0 q 50 50 100 0 q 0 174 0 102 l 0 694 q 50 817 0 766 q 174 868 102 868 l 868 868 l 868 694 l 174 694 l 174 521 l 868 521 l 868 347 l 174 347 l 174 174 l 868 174 l 868 0 l 174 0 m 521 1042 q 571 1164 521 1114 q 694 1215 623 1215 l 868 1215 l 868 1042 l 521 1042 z "},"Ê":{"ha":1156,"x_min":0,"x_max":868,"o":"m 174 0 q 50 50 100 0 q 0 174 0 102 l 0 694 q 50 817 0 766 q 174 868 102 868 l 868 868 l 868 694 l 174 694 l 174 521 l 868 521 l 868 347 l 174 347 l 174 174 l 868 174 l 868 0 l 174 0 m 0 1042 q 50 1164 0 1114 q 174 1215 102 1215 l 694 1215 q 817 1164 766 1215 q 868 1042 868 1112 l 0 1042 z "},"Ë":{"ha":1156,"x_min":0,"x_max":868,"o":"m 174 0 q 50 50 100 0 q 0 174 0 102 l 0 694 q 50 817 0 766 q 174 868 102 868 l 868 868 l 868 694 l 174 694 l 174 521 l 868 521 l 868 347 l 174 347 l 174 174 l 868 174 l 868 0 l 174 0 m 87 1042 q 24 1066 50 1042 q 0 1128 0 1092 q 24 1190 0 1164 q 87 1215 50 1215 q 148 1190 122 1215 q 174 1128 174 1164 q 148 1066 174 1092 q 87 1042 122 1042 l 87 1042 m 781 1042 q 719 1066 745 1042 q 694 1128 694 1092 q 719 1190 694 1164 q 781 1215 745 1215 q 842 1190 817 1215 q 868 1128 868 1164 q 842 1066 868 1092 q 781 1042 817 1042 l 781 1042 z "},"Ì":{"ha":635,"x_min":0,"x_max":347,"o":"m 0 0 l 0 868 l 174 868 l 174 0 l 0 0 m 0 1042 l 0 1215 l 174 1215 q 296 1164 245 1215 q 347 1042 347 1112 l 0 1042 z "},"Í":{"ha":635,"x_min":0,"x_max":347,"o":"m 0 0 l 0 868 l 174 868 l 174 0 l 0 0 m 0 1042 q 50 1164 0 1114 q 174 1215 102 1215 l 347 1215 l 347 1042 l 0 1042 z "},"Î":{"ha":461,"x_min":0,"x_max":174,"o":"m 0 0 l 0 868 l 174 868 l 174 0 l 0 0 m 0 1042 q 24 1103 0 1077 q 87 1128 50 1128 q 148 1103 122 1128 q 174 1042 174 1077 l 0 1042 z "},"Ï":{"ha":635,"x_min":-174,"x_max":347,"o":"m 0 0 l 0 868 l 174 868 l 174 0 l 0 0 m -87 1042 q -148 1066 -122 1042 q -174 1128 -174 1092 q -148 1190 -174 1164 q -87 1215 -122 1215 q -24 1190 -50 1215 q 0 1128 0 1164 q -24 1066 0 1092 q -87 1042 -50 1042 l -87 1042 m 260 1042 q 198 1066 224 1042 q 174 1128 174 1092 q 198 1190 174 1164 q 260 1215 224 1215 q 321 1190 296 1215 q 347 1128 347 1164 q 321 1066 347 1092 q 260 1042 296 1042 l 260 1042 z "},"Ð":{"ha":1156,"x_min":-174,"x_max":868,"o":"m 694 174 l 694 694 l 174 694 l 174 521 l 521 521 l 521 347 l 174 347 l 174 174 l 694 174 m 0 0 l 0 347 l -174 347 l -174 521 l 0 521 l 0 868 l 694 868 q 817 817 766 868 q 868 694 868 765 l 868 174 q 817 50 868 100 q 694 0 765 0 l 0 0 z "},"Ñ":{"ha":1156,"x_min":0,"x_max":868,"o":"m 0 0 l 0 868 l 694 868 q 817 817 766 868 q 868 694 868 765 l 868 0 l 694 0 l 694 694 l 174 694 l 174 0 l 0 0 m 0 1042 q 50 1164 0 1114 q 174 1215 102 1215 l 347 1215 q 408 1190 382 1215 q 434 1128 434 1164 q 408 1066 434 1092 q 347 1042 382 1042 l 0 1042 m 521 1042 q 458 1066 484 1042 q 434 1128 434 1092 q 458 1190 434 1164 q 521 1215 484 1215 l 868 1215 q 817 1092 868 1142 q 694 1042 765 1042 l 521 1042 z "},"Ò":{"ha":1156,"x_min":0,"x_max":868,"o":"m 694 174 l 694 694 l 174 694 l 174 174 l 694 174 m 174 0 q 50 50 100 0 q 0 174 0 102 l 0 694 q 50 817 0 766 q 174 868 102 868 l 694 868 q 817 817 766 868 q 868 694 868 765 l 868 174 q 817 50 868 100 q 694 0 765 0 l 174 0 m 0 1042 l 0 1215 l 174 1215 q 296 1164 245 1215 q 347 1042 347 1112 l 0 1042 z "},"Ó":{"ha":1156,"x_min":0,"x_max":868,"o":"m 694 174 l 694 694 l 174 694 l 174 174 l 694 174 m 174 0 q 50 50 100 0 q 0 174 0 102 l 0 694 q 50 817 0 766 q 174 868 102 868 l 694 868 q 817 817 766 868 q 868 694 868 765 l 868 174 q 817 50 868 100 q 694 0 765 0 l 174 0 m 521 1042 q 571 1164 521 1114 q 694 1215 623 1215 l 868 1215 l 868 1042 l 521 1042 z "},"Ô":{"ha":1156,"x_min":0,"x_max":868,"o":"m 694 174 l 694 694 l 174 694 l 174 174 l 694 174 m 174 0 q 50 50 100 0 q 0 174 0 102 l 0 694 q 50 817 0 766 q 174 868 102 868 l 694 868 q 817 817 766 868 q 868 694 868 765 l 868 174 q 817 50 868 100 q 694 0 765 0 l 174 0 m 0 1042 q 50 1164 0 1114 q 174 1215 102 1215 l 694 1215 q 817 1164 766 1215 q 868 1042 868 1112 l 0 1042 z "},"Õ":{"ha":1156,"x_min":0,"x_max":868,"o":"m 694 174 l 694 694 l 174 694 l 174 174 l 694 174 m 174 0 q 50 50 100 0 q 0 174 0 102 l 0 694 q 50 817 0 766 q 174 868 102 868 l 694 868 q 817 817 766 868 q 868 694 868 765 l 868 174 q 817 50 868 100 q 694 0 765 0 l 174 0 m 0 1042 q 50 1164 0 1114 q 174 1215 102 1215 l 347 1215 q 408 1190 382 1215 q 434 1128 434 1164 q 408 1066 434 1092 q 347 1042 382 1042 l 0 1042 m 521 1042 q 458 1066 484 1042 q 434 1128 434 1092 q 458 1190 434 1164 q 521 1215 484 1215 l 868 1215 q 817 1092 868 1142 q 694 1042 765 1042 l 521 1042 z "},"Ö":{"ha":1156,"x_min":0,"x_max":868,"o":"m 694 174 l 694 694 l 174 694 l 174 174 l 694 174 m 174 0 q 50 50 100 0 q 0 174 0 102 l 0 694 q 50 817 0 766 q 174 868 102 868 l 694 868 q 817 817 766 868 q 868 694 868 765 l 868 174 q 817 50 868 100 q 694 0 765 0 l 174 0 m 87 1042 q 24 1066 50 1042 q 0 1128 0 1092 q 24 1190 0 1164 q 87 1215 50 1215 q 148 1190 122 1215 q 174 1128 174 1164 q 148 1066 174 1092 q 87 1042 122 1042 l 87 1042 m 781 1042 q 719 1066 745 1042 q 694 1128 694 1092 q 719 1190 694 1164 q 781 1215 745 1215 q 842 1190 817 1215 q 868 1128 868 1164 q 842 1066 868 1092 q 781 1042 817 1042 l 781 1042 z "},"×":{"ha":982,"x_min":0,"x_max":694,"o":"m 0 174 l 0 347 q 24 408 0 382 q 87 434 50 434 q 24 458 50 434 q 0 521 0 484 l 0 694 l 174 694 l 174 521 l 521 521 l 521 694 l 694 694 l 694 521 q 669 458 694 484 q 608 434 643 434 q 669 408 643 434 q 694 347 694 382 l 694 174 l 521 174 l 521 347 l 174 347 l 174 174 l 0 174 z "},"Ø":{"ha":1156,"x_min":0,"x_max":868,"o":"m 694 174 l 694 521 q 571 571 621 521 q 521 694 521 623 l 174 694 l 174 347 q 296 296 245 347 q 347 174 347 244 l 694 174 m 174 0 q 50 50 100 0 q 0 174 0 102 l 0 694 q 50 817 0 766 q 174 868 102 868 l 694 868 q 817 817 766 868 q 868 694 868 765 l 868 174 q 817 50 868 100 q 694 0 765 0 l 174 0 z "},"Ù":{"ha":1156,"x_min":0,"x_max":868,"o":"m 174 0 q 50 50 100 0 q 0 174 0 102 l 0 868 l 174 868 l 174 174 l 694 174 l 694 868 l 868 868 l 868 0 l 174 0 m 0 1042 l 0 1215 l 174 1215 q 296 1164 245 1215 q 347 1042 347 1112 l 0 1042 z "},"Ú":{"ha":1156,"x_min":0,"x_max":868,"o":"m 174 0 q 50 50 100 0 q 0 174 0 102 l 0 868 l 174 868 l 174 174 l 694 174 l 694 868 l 868 868 l 868 0 l 174 0 m 521 1042 q 571 1164 521 1114 q 694 1215 623 1215 l 868 1215 l 868 1042 l 521 1042 z "},"Û":{"ha":1156,"x_min":0,"x_max":868,"o":"m 174 0 q 50 50 100 0 q 0 174 0 102 l 0 868 l 174 868 l 174 174 l 694 174 l 694 868 l 868 868 l 868 0 l 174 0 m 0 1042 q 50 1164 0 1114 q 174 1215 102 1215 l 694 1215 q 817 1164 766 1215 q 868 1042 868 1112 l 0 1042 z "},"Ü":{"ha":1156,"x_min":0,"x_max":868,"o":"m 174 0 q 50 50 100 0 q 0 174 0 102 l 0 868 l 174 868 l 174 174 l 694 174 l 694 868 l 868 868 l 868 0 l 174 0 m 87 1042 q 24 1066 50 1042 q 0 1128 0 1092 q 24 1190 0 1164 q 87 1215 50 1215 q 148 1190 122 1215 q 174 1128 174 1164 q 148 1066 174 1092 q 87 1042 122 1042 l 87 1042 m 781 1042 q 719 1066 745 1042 q 694 1128 694 1092 q 719 1190 694 1164 q 781 1215 745 1215 q 842 1190 817 1215 q 868 1128 868 1164 q 842 1066 868 1092 q 781 1042 817 1042 l 781 1042 z "},"Ý":{"ha":1156,"x_min":0,"x_max":868,"o":"m 347 0 l 347 347 l 174 347 q 50 397 100 347 q 0 521 0 449 l 0 868 l 174 868 l 174 521 l 694 521 l 694 868 l 868 868 l 868 521 q 817 397 868 448 q 694 347 765 347 l 521 347 l 521 0 l 347 0 m 174 868 q 224 990 174 940 q 347 1042 275 1042 l 521 1042 l 521 868 l 174 868 z "},"Þ":{"ha":808,"x_min":0,"x_max":521,"o":"m 347 347 l 347 521 l 174 521 l 174 347 l 347 347 m 0 0 l 0 868 l 174 868 l 174 694 l 347 694 q 469 643 419 694 q 521 521 521 591 l 521 347 q 469 224 521 274 q 347 174 418 174 l 174 174 l 174 0 l 0 0 z "},"ß":{"ha":1156,"x_min":0,"x_max":868,"o":"m 521 521 l 521 694 l 174 694 l 174 521 l 521 521 m 0 0 l 0 694 q 50 817 0 766 q 174 868 102 868 l 521 868 q 643 817 593 868 q 694 694 694 765 l 694 521 q 817 469 766 521 q 868 347 868 418 l 868 174 q 817 50 868 100 q 694 0 765 0 l 347 0 l 347 174 l 694 174 l 694 347 l 174 347 l 174 0 l 0 0 z "},"à":{"ha":1156,"x_min":0,"x_max":868,"o":"m 694 521 l 694 694 l 174 694 l 174 521 l 694 521 m 0 0 l 0 694 q 50 817 0 766 q 174 868 102 868 l 694 868 q 817 817 766 868 q 868 694 868 765 l 868 0 l 694 0 l 694 347 l 174 347 l 174 0 l 0 0 m 0 1042 l 0 1215 l 174 1215 q 296 1164 245 1215 q 347 1042 347 1112 l 0 1042 z "},"á":{"ha":1156,"x_min":0,"x_max":868,"o":"m 694 521 l 694 694 l 174 694 l 174 521 l 694 521 m 0 0 l 0 694 q 50 817 0 766 q 174 868 102 868 l 694 868 q 817 817 766 868 q 868 694 868 765 l 868 0 l 694 0 l 694 347 l 174 347 l 174 0 l 0 0 m 521 1042 q 571 1164 521 1114 q 694 1215 623 1215 l 868 1215 l 868 1042 l 521 1042 z "},"â":{"ha":1156,"x_min":0,"x_max":868,"o":"m 694 521 l 694 694 l 174 694 l 174 521 l 694 521 m 0 0 l 0 694 q 50 817 0 766 q 174 868 102 868 l 694 868 q 817 817 766 868 q 868 694 868 765 l 868 0 l 694 0 l 694 347 l 174 347 l 174 0 l 0 0 m 0 1042 q 50 1164 0 1114 q 174 1215 102 1215 l 694 1215 q 817 1164 766 1215 q 868 1042 868 1112 l 0 1042 z "},"ã":{"ha":1156,"x_min":0,"x_max":868,"o":"m 694 521 l 694 694 l 174 694 l 174 521 l 694 521 m 0 0 l 0 694 q 50 817 0 766 q 174 868 102 868 l 694 868 q 817 817 766 868 q 868 694 868 765 l 868 0 l 694 0 l 694 347 l 174 347 l 174 0 l 0 0 m 0 1042 q 50 1164 0 1114 q 174 1215 102 1215 l 347 1215 q 408 1190 382 1215 q 434 1128 434 1164 q 408 1066 434 1092 q 347 1042 382 1042 l 0 1042 m 521 1042 q 458 1066 484 1042 q 434 1128 434 1092 q 458 1190 434 1164 q 521 1215 484 1215 l 868 1215 q 817 1092 868 1142 q 694 1042 765 1042 l 521 1042 z "},"ä":{"ha":1156,"x_min":0,"x_max":868,"o":"m 694 521 l 694 694 l 174 694 l 174 521 l 694 521 m 0 0 l 0 694 q 50 817 0 766 q 174 868 102 868 l 694 868 q 817 817 766 868 q 868 694 868 765 l 868 0 l 694 0 l 694 347 l 174 347 l 174 0 l 0 0 m 87 1042 q 24 1066 50 1042 q 0 1128 0 1092 q 24 1190 0 1164 q 87 1215 50 1215 q 148 1190 122 1215 q 174 1128 174 1164 q 148 1066 174 1092 q 87 1042 122 1042 l 87 1042 m 781 1042 q 719 1066 745 1042 q 694 1128 694 1092 q 719 1190 694 1164 q 781 1215 745 1215 q 842 1190 817 1215 q 868 1128 868 1164 q 842 1066 868 1092 q 781 1042 817 1042 l 781 1042 z "},"å":{"ha":1156,"x_min":0,"x_max":868,"o":"m 694 521 l 694 694 l 174 694 l 174 521 l 694 521 m 0 0 l 0 694 q 50 817 0 766 q 174 868 102 868 l 694 868 q 817 817 766 868 q 868 694 868 765 l 868 0 l 694 0 l 694 347 l 174 347 l 174 0 l 0 0 m 434 1042 q 372 1066 397 1042 q 347 1128 347 1092 q 372 1190 347 1164 q 434 1215 397 1215 q 495 1190 469 1215 q 521 1128 521 1164 q 495 1066 521 1092 q 434 1042 469 1042 l 434 1042 z "},"æ":{"ha":1329,"x_min":0,"x_max":1042,"o":"m 521 521 l 521 694 l 174 694 l 174 521 l 521 521 m 0 0 l 0 694 q 50 817 0 766 q 174 868 102 868 l 1042 868 l 1042 694 l 694 694 l 694 521 l 1042 521 l 1042 347 l 694 347 l 694 174 l 1042 174 l 1042 0 l 694 0 q 571 50 621 0 q 521 174 521 102 l 521 347 l 174 347 l 174 0 l 0 0 z "},"ç":{"ha":1156,"x_min":0,"x_max":868,"o":"m 347 -174 l 347 0 l 174 0 q 50 50 100 0 q 0 174 0 102 l 0 694 q 50 817 0 766 q 174 868 102 868 l 694 868 q 817 817 766 868 q 868 694 868 765 l 868 521 l 694 521 l 694 694 l 174 694 l 174 174 l 694 174 l 694 347 l 868 347 l 868 174 q 817 50 868 100 q 694 0 765 0 l 521 0 q 469 -122 521 -72 q 347 -174 418 -174 l 347 -174 z "},"è":{"ha":1156,"x_min":0,"x_max":868,"o":"m 174 0 q 50 50 100 0 q 0 174 0 102 l 0 694 q 50 817 0 766 q 174 868 102 868 l 868 868 l 868 694 l 174 694 l 174 521 l 868 521 l 868 347 l 174 347 l 174 174 l 868 174 l 868 0 l 174 0 m 0 1042 l 0 1215 l 174 1215 q 296 1164 245 1215 q 347 1042 347 1112 l 0 1042 z "},"é":{"ha":1156,"x_min":0,"x_max":868,"o":"m 174 0 q 50 50 100 0 q 0 174 0 102 l 0 694 q 50 817 0 766 q 174 868 102 868 l 868 868 l 868 694 l 174 694 l 174 521 l 868 521 l 868 347 l 174 347 l 174 174 l 868 174 l 868 0 l 174 0 m 521 1042 q 571 1164 521 1114 q 694 1215 623 1215 l 868 1215 l 868 1042 l 521 1042 z "},"ê":{"ha":1156,"x_min":0,"x_max":868,"o":"m 174 0 q 50 50 100 0 q 0 174 0 102 l 0 694 q 50 817 0 766 q 174 868 102 868 l 868 868 l 868 694 l 174 694 l 174 521 l 868 521 l 868 347 l 174 347 l 174 174 l 868 174 l 868 0 l 174 0 m 0 1042 q 50 1164 0 1114 q 174 1215 102 1215 l 694 1215 q 817 1164 766 1215 q 868 1042 868 1112 l 0 1042 z "},"ë":{"ha":1156,"x_min":0,"x_max":868,"o":"m 174 0 q 50 50 100 0 q 0 174 0 102 l 0 694 q 50 817 0 766 q 174 868 102 868 l 868 868 l 868 694 l 174 694 l 174 521 l 868 521 l 868 347 l 174 347 l 174 174 l 868 174 l 868 0 l 174 0 m 87 1042 q 24 1066 50 1042 q 0 1128 0 1092 q 24 1190 0 1164 q 87 1215 50 1215 q 148 1190 122 1215 q 174 1128 174 1164 q 148 1066 174 1092 q 87 1042 122 1042 l 87 1042 m 781 1042 q 719 1066 745 1042 q 694 1128 694 1092 q 719 1190 694 1164 q 781 1215 745 1215 q 842 1190 817 1215 q 868 1128 868 1164 q 842 1066 868 1092 q 781 1042 817 1042 l 781 1042 z "},"ì":{"ha":635,"x_min":0,"x_max":347,"o":"m 0 0 l 0 868 l 174 868 l 174 0 l 0 0 m 0 1042 l 0 1215 l 174 1215 q 296 1164 245 1215 q 347 1042 347 1112 l 0 1042 z "},"í":{"ha":635,"x_min":0,"x_max":347,"o":"m 0 0 l 0 868 l 174 868 l 174 0 l 0 0 m 0 1042 q 50 1164 0 1114 q 174 1215 102 1215 l 347 1215 l 347 1042 l 0 1042 z "},"î":{"ha":461,"x_min":0,"x_max":174,"o":"m 0 0 l 0 868 l 174 868 l 174 0 l 0 0 m 0 1042 q 24 1103 0 1077 q 87 1128 50 1128 q 148 1103 122 1128 q 174 1042 174 1077 l 0 1042 z "},"ï":{"ha":635,"x_min":-174,"x_max":347,"o":"m 0 0 l 0 868 l 174 868 l 174 0 l 0 0 m -87 1042 q -148 1066 -122 1042 q -174 1128 -174 1092 q -148 1190 -174 1164 q -87 1215 -122 1215 q -24 1190 -50 1215 q 0 1128 0 1164 q -24 1066 0 1092 q -87 1042 -50 1042 l -87 1042 m 260 1042 q 198 1066 224 1042 q 174 1128 174 1092 q 198 1190 174 1164 q 260 1215 224 1215 q 321 1190 296 1215 q 347 1128 347 1164 q 321 1066 347 1092 q 260 1042 296 1042 l 260 1042 z "},"ð":{"ha":1156,"x_min":0,"x_max":868,"o":"m 694 174 l 694 347 l 174 347 l 174 174 l 694 174 m 174 0 q 50 50 100 0 q 0 174 0 102 l 0 347 q 50 469 0 419 q 174 521 102 521 l 694 521 l 694 694 l 521 694 q 469 571 521 621 q 347 521 418 521 l 347 694 l 174 694 l 174 868 l 347 868 q 397 990 347 940 q 521 1042 449 1042 l 521 868 l 694 868 q 817 817 766 868 q 868 694 868 765 l 868 174 q 817 50 868 100 q 694 0 765 0 l 174 0 z "},"ñ":{"ha":1156,"x_min":0,"x_max":868,"o":"m 0 0 l 0 868 l 694 868 q 817 817 766 868 q 868 694 868 765 l 868 0 l 694 0 l 694 694 l 174 694 l 174 0 l 0 0 m 0 1042 q 50 1164 0 1114 q 174 1215 102 1215 l 347 1215 q 408 1190 382 1215 q 434 1128 434 1164 q 408 1066 434 1092 q 347 1042 382 1042 l 0 1042 m 521 1042 q 458 1066 484 1042 q 434 1128 434 1092 q 458 1190 434 1164 q 521 1215 484 1215 l 868 1215 q 817 1092 868 1142 q 694 1042 765 1042 l 521 1042 z "},"ò":{"ha":1156,"x_min":0,"x_max":868,"o":"m 694 174 l 694 694 l 174 694 l 174 174 l 694 174 m 174 0 q 50 50 100 0 q 0 174 0 102 l 0 694 q 50 817 0 766 q 174 868 102 868 l 694 868 q 817 817 766 868 q 868 694 868 765 l 868 174 q 817 50 868 100 q 694 0 765 0 l 174 0 m 0 1042 l 0 1215 l 174 1215 q 296 1164 245 1215 q 347 1042 347 1112 l 0 1042 z "},"ó":{"ha":1156,"x_min":0,"x_max":868,"o":"m 694 174 l 694 694 l 174 694 l 174 174 l 694 174 m 174 0 q 50 50 100 0 q 0 174 0 102 l 0 694 q 50 817 0 766 q 174 868 102 868 l 694 868 q 817 817 766 868 q 868 694 868 765 l 868 174 q 817 50 868 100 q 694 0 765 0 l 174 0 m 521 1042 q 571 1164 521 1114 q 694 1215 623 1215 l 868 1215 l 868 1042 l 521 1042 z "},"ô":{"ha":1156,"x_min":0,"x_max":868,"o":"m 694 174 l 694 694 l 174 694 l 174 174 l 694 174 m 174 0 q 50 50 100 0 q 0 174 0 102 l 0 694 q 50 817 0 766 q 174 868 102 868 l 694 868 q 817 817 766 868 q 868 694 868 765 l 868 174 q 817 50 868 100 q 694 0 765 0 l 174 0 m 0 1042 q 50 1164 0 1114 q 174 1215 102 1215 l 694 1215 q 817 1164 766 1215 q 868 1042 868 1112 l 0 1042 z "},"õ":{"ha":1156,"x_min":0,"x_max":868,"o":"m 694 174 l 694 694 l 174 694 l 174 174 l 694 174 m 174 0 q 50 50 100 0 q 0 174 0 102 l 0 694 q 50 817 0 766 q 174 868 102 868 l 694 868 q 817 817 766 868 q 868 694 868 765 l 868 174 q 817 50 868 100 q 694 0 765 0 l 174 0 m 0 1042 q 50 1164 0 1114 q 174 1215 102 1215 l 347 1215 q 408 1190 382 1215 q 434 1128 434 1164 q 408 1066 434 1092 q 347 1042 382 1042 l 0 1042 m 521 1042 q 458 1066 484 1042 q 434 1128 434 1092 q 458 1190 434 1164 q 521 1215 484 1215 l 868 1215 q 817 1092 868 1142 q 694 1042 765 1042 l 521 1042 z "},"ö":{"ha":1156,"x_min":0,"x_max":868,"o":"m 694 174 l 694 694 l 174 694 l 174 174 l 694 174 m 174 0 q 50 50 100 0 q 0 174 0 102 l 0 694 q 50 817 0 766 q 174 868 102 868 l 694 868 q 817 817 766 868 q 868 694 868 765 l 868 174 q 817 50 868 100 q 694 0 765 0 l 174 0 m 87 1042 q 24 1066 50 1042 q 0 1128 0 1092 q 24 1190 0 1164 q 87 1215 50 1215 q 148 1190 122 1215 q 174 1128 174 1164 q 148 1066 174 1092 q 87 1042 122 1042 l 87 1042 m 781 1042 q 719 1066 745 1042 q 694 1128 694 1092 q 719 1190 694 1164 q 781 1215 745 1215 q 842 1190 817 1215 q 868 1128 868 1164 q 842 1066 868 1092 q 781 1042 817 1042 l 781 1042 z "},"÷":{"ha":1156,"x_min":0,"x_max":868,"o":"m 434 0 q 372 24 397 0 q 347 87 347 50 q 372 148 347 122 q 434 174 397 174 q 495 148 469 174 q 521 87 521 122 q 495 24 521 50 q 434 0 469 0 l 434 0 m 0 347 l 0 521 l 868 521 l 868 347 l 0 347 m 434 694 q 372 719 397 694 q 347 781 347 745 q 372 842 347 817 q 434 868 397 868 q 495 842 469 868 q 521 781 521 817 q 495 719 521 745 q 434 694 469 694 l 434 694 z "},"ø":{"ha":1156,"x_min":0,"x_max":868,"o":"m 694 174 l 694 521 q 571 571 621 521 q 521 694 521 623 l 174 694 l 174 347 q 296 296 245 347 q 347 174 347 244 l 694 174 m 174 0 q 50 50 100 0 q 0 174 0 102 l 0 694 q 50 817 0 766 q 174 868 102 868 l 694 868 q 817 817 766 868 q 868 694 868 765 l 868 174 q 817 50 868 100 q 694 0 765 0 l 174 0 z "},"ù":{"ha":1156,"x_min":0,"x_max":868,"o":"m 174 0 q 50 50 100 0 q 0 174 0 102 l 0 868 l 174 868 l 174 174 l 694 174 l 694 868 l 868 868 l 868 0 l 174 0 m 0 1042 l 0 1215 l 174 1215 q 296 1164 245 1215 q 347 1042 347 1112 l 0 1042 z "},"ú":{"ha":1156,"x_min":0,"x_max":868,"o":"m 174 0 q 50 50 100 0 q 0 174 0 102 l 0 868 l 174 868 l 174 174 l 694 174 l 694 868 l 868 868 l 868 0 l 174 0 m 521 1042 q 571 1164 521 1114 q 694 1215 623 1215 l 868 1215 l 868 1042 l 521 1042 z "},"û":{"ha":1156,"x_min":0,"x_max":868,"o":"m 174 0 q 50 50 100 0 q 0 174 0 102 l 0 868 l 174 868 l 174 174 l 694 174 l 694 868 l 868 868 l 868 0 l 174 0 m 0 1042 q 50 1164 0 1114 q 174 1215 102 1215 l 694 1215 q 817 1164 766 1215 q 868 1042 868 1112 l 0 1042 z "},"ü":{"ha":1156,"x_min":0,"x_max":868,"o":"m 174 0 q 50 50 100 0 q 0 174 0 102 l 0 868 l 174 868 l 174 174 l 694 174 l 694 868 l 868 868 l 868 0 l 174 0 m 87 1042 q 24 1066 50 1042 q 0 1128 0 1092 q 24 1190 0 1164 q 87 1215 50 1215 q 148 1190 122 1215 q 174 1128 174 1164 q 148 1066 174 1092 q 87 1042 122 1042 l 87 1042 m 781 1042 q 719 1066 745 1042 q 694 1128 694 1092 q 719 1190 694 1164 q 781 1215 745 1215 q 842 1190 817 1215 q 868 1128 868 1164 q 842 1066 868 1092 q 781 1042 817 1042 l 781 1042 z "},"ý":{"ha":1156,"x_min":0,"x_max":868,"o":"m 347 0 l 347 347 l 174 347 q 50 397 100 347 q 0 521 0 449 l 0 868 l 174 868 l 174 521 l 694 521 l 694 868 l 868 868 l 868 521 q 817 397 868 448 q 694 347 765 347 l 521 347 l 521 0 l 347 0 m 174 868 q 224 990 174 940 q 347 1042 275 1042 l 521 1042 l 521 868 l 174 868 z "},"þ":{"ha":808,"x_min":0,"x_max":521,"o":"m 347 347 l 347 521 l 174 521 l 174 347 l 347 347 m 0 0 l 0 868 l 174 868 l 174 694 l 347 694 q 469 643 419 694 q 521 521 521 591 l 521 347 q 469 224 521 274 q 347 174 418 174 l 174 174 l 174 0 l 0 0 z "},"ÿ":{"ha":1156,"x_min":0,"x_max":868,"o":"m 347 0 l 347 347 l 174 347 q 50 397 100 347 q 0 521 0 449 l 0 868 l 174 868 l 174 521 l 694 521 l 694 868 l 868 868 l 868 521 q 817 397 868 448 q 694 347 765 347 l 521 347 l 521 0 l 347 0 z "},"Ů":{"ha":1156,"x_min":0,"x_max":868,"o":"m 174 0 q 50 50 100 0 q 0 174 0 102 l 0 868 l 174 868 l 174 174 l 694 174 l 694 868 l 868 868 l 868 0 l 174 0 z "},"ů":{"ha":1156,"x_min":0,"x_max":868,"o":"m 174 0 q 50 50 100 0 q 0 174 0 102 l 0 868 l 174 868 l 174 174 l 694 174 l 694 868 l 868 868 l 868 0 l 174 0 z "},"Ÿ":{"ha":1156,"x_min":0,"x_max":868,"o":"m 347 0 l 347 347 l 174 347 q 50 397 100 347 q 0 521 0 449 l 0 694 l 174 694 l 174 521 l 694 521 l 694 694 l 868 694 l 868 521 q 817 397 868 448 q 694 347 765 347 l 521 347 l 521 0 l 347 0 m 87 868 q 24 892 50 868 q 0 955 0 918 q 24 1016 0 990 q 87 1042 50 1042 q 148 1016 122 1042 q 174 955 174 990 q 148 892 174 918 q 87 868 122 868 l 87 868 m 781 868 q 719 892 745 868 q 694 955 694 918 q 719 1016 694 990 q 781 1042 745 1042 q 842 1016 817 1042 q 868 955 868 990 q 842 892 868 918 q 781 868 817 868 l 781 868 z "},"ẞ":{"ha":1156,"x_min":0,"x_max":868,"o":"m 521 521 l 521 694 l 174 694 l 174 521 l 521 521 m 0 0 l 0 694 q 50 817 0 766 q 174 868 102 868 l 521 868 q 643 817 593 868 q 694 694 694 765 l 694 521 q 817 469 766 521 q 868 347 868 418 l 868 174 q 817 50 868 100 q 694 0 765 0 l 347 0 l 347 174 l 694 174 l 694 347 l 174 347 l 174 0 l 0 0 z "},"—":{"ha":1329,"x_min":0,"x_max":1042,"o":"m 0 347 l 0 521 l 1042 521 l 1042 347 l 0 347 z "},"‘":{"ha":461,"x_min":0,"x_max":174,"o":"m 0 521 l 0 694 q 50 817 0 766 q 174 868 102 868 l 174 521 l 0 521 z "},"’":{"ha":461,"x_min":0,"x_max":174,"o":"m 0 521 l 0 868 l 174 868 l 174 694 q 122 571 174 621 q 0 521 71 521 l 0 521 z "},"‚":{"ha":461,"x_min":0,"x_max":174,"o":"m 0 -174 l 0 174 l 174 174 l 174 0 q 122 -122 174 -72 q 0 -174 71 -174 l 0 -174 z "},"‛":{"ha":461,"x_min":0,"x_max":174,"o":"m 174 521 q 50 571 100 521 q 0 694 0 623 l 0 868 l 174 868 l 174 521 l 174 521 z "},"“":{"ha":808,"x_min":0,"x_max":521,"o":"m 0 521 l 0 694 q 50 817 0 766 q 174 868 102 868 l 174 521 l 0 521 m 347 521 l 347 694 q 397 817 347 766 q 521 868 449 868 l 521 521 l 347 521 z "},"”":{"ha":808,"x_min":0,"x_max":521,"o":"m 0 521 l 0 868 l 174 868 l 174 694 q 122 571 174 621 q 0 521 71 521 l 0 521 m 347 521 l 347 868 l 521 868 l 521 694 q 469 571 521 621 q 347 521 418 521 l 347 521 z "},"„":{"ha":808,"x_min":0,"x_max":521,"o":"m 0 -174 l 0 174 l 174 174 l 174 0 q 122 -122 174 -72 q 0 -174 71 -174 l 0 -174 m 347 -174 l 347 174 l 521 174 l 521 0 q 469 -122 521 -72 q 347 -174 418 -174 l 347 -174 z "},"†":{"ha":808,"x_min":0,"x_max":521,"o":"m 174 0 l 174 521 l 0 521 l 0 694 l 174 694 l 174 1042 l 347 1042 l 347 694 l 521 694 l 521 521 l 347 521 l 347 0 l 174 0 z "},"•":{"ha":461,"x_min":0,"x_max":174,"o":"m 87 347 q 24 372 50 347 q 0 434 0 397 q 24 495 0 469 q 87 521 50 521 q 148 495 122 521 q 174 434 174 469 q 148 372 174 397 q 87 347 122 347 l 87 347 z "},"…":{"ha":1156,"x_min":0,"x_max":868,"o":"m 87 0 q 24 24 50 0 q 0 87 0 50 q 24 148 0 122 q 87 174 50 174 q 148 148 122 174 q 174 87 174 122 q 148 24 174 50 q 87 0 122 0 l 87 0 m 434 0 q 372 24 397 0 q 347 87 347 50 q 372 148 347 122 q 434 174 397 174 q 495 148 469 174 q 521 87 521 122 q 495 24 521 50 q 434 0 469 0 l 434 0 m 781 0 q 719 24 745 0 q 694 87 694 50 q 719 148 694 122 q 781 174 745 174 q 842 148 817 174 q 868 87 868 122 q 842 24 868 50 q 781 0 817 0 l 781 0 z "},"‹":{"ha":635,"x_min":0,"x_max":347,"o":"m 174 0 q 50 50 100 0 q 0 174 0 102 l 0 347 q 50 469 0 419 q 174 521 102 521 l 347 521 l 347 347 l 174 347 l 174 174 l 347 174 l 347 0 l 174 0 z "},"›":{"ha":635,"x_min":0,"x_max":347,"o":"m 0 0 l 0 174 l 174 174 l 174 347 l 0 347 l 0 521 l 174 521 q 296 469 245 521 q 347 347 347 418 l 347 174 q 296 50 347 100 q 174 0 244 0 l 0 0 z "},"€":{"ha":1156,"x_min":-174,"x_max":868,"o":"m 174 0 q 50 50 100 0 q 0 174 0 102 l 0 347 l -174 347 l -174 521 l 0 521 l 0 694 q 50 817 0 766 q 174 868 102 868 l 868 868 l 868 694 l 174 694 l 174 521 l 694 521 l 694 347 l 174 347 l 174 174 l 868 174 l 868 0 l 174 0 z "},"™":{"ha":808,"x_min":0,"x_max":521,"o":"m 174 347 l 174 521 l 0 521 l 0 694 l 347 694 q 469 643 419 694 q 521 521 521 591 l 521 347 l 174 347 z "},"ﬀ":{"ha":1156,"x_min":0,"x_max":868,"o":"m 0 0 l 0 694 q 50 817 0 766 q 174 868 102 868 l 347 868 l 347 694 l 174 694 l 174 521 l 521 521 l 521 694 q 571 817 521 766 q 694 868 623 868 l 868 868 l 868 694 l 694 694 l 694 521 l 868 521 l 868 347 l 694 347 l 694 0 l 521 0 l 521 347 l 174 347 l 174 0 l 0 0 z "},"ﬁ":{"ha":982,"x_min":0,"x_max":694,"o":"m 0 0 l 0 694 q 50 817 0 766 q 174 868 102 868 l 347 868 l 347 694 l 174 694 l 174 521 l 694 521 l 694 0 l 521 0 l 521 347 l 174 347 l 174 0 l 0 0 m 608 694 q 545 719 571 694 q 521 781 521 745 q 545 842 521 817 q 608 868 571 868 q 669 842 643 868 q 694 781 694 817 q 669 719 694 745 q 608 694 643 694 l 608 694 z "},"ﬂ":{"ha":982,"x_min":0,"x_max":694,"o":"m 0 0 l 0 694 q 50 817 0 766 q 174 868 102 868 l 347 868 l 347 694 l 174 694 l 174 521 l 521 521 l 521 868 l 694 868 l 694 0 l 521 0 l 521 347 l 174 347 l 174 0 l 0 0 z "},"ﬃ":{"ha":1503,"x_min":0,"x_max":1215,"o":"m 0 0 l 0 694 q 50 817 0 766 q 174 868 102 868 l 347 868 l 347 694 l 174 694 l 174 521 l 521 521 l 521 694 q 571 817 521 766 q 694 868 623 868 l 868 868 l 868 694 l 694 694 l 694 521 l 1215 521 l 1215 0 l 1042 0 l 1042 347 l 694 347 l 694 0 l 521 0 l 521 347 l 174 347 l 174 0 l 0 0 m 1128 694 q 1066 719 1092 694 q 1042 781 1042 745 q 1066 842 1042 817 q 1128 868 1092 868 q 1190 842 1164 868 q 1215 781 1215 817 q 1190 719 1215 745 q 1128 694 1164 694 l 1128 694 z "},"ﬄ":{"ha":1503,"x_min":0,"x_max":1215,"o":"m 0 0 l 0 694 q 50 817 0 766 q 174 868 102 868 l 347 868 l 347 694 l 174 694 l 174 521 l 521 521 l 521 694 q 571 817 521 766 q 694 868 623 868 l 868 868 l 868 694 l 694 694 l 694 521 l 1042 521 l 1042 868 l 1215 868 l 1215 0 l 1042 0 l 1042 347 l 694 347 l 694 0 l 521 0 l 521 347 l 174 347 l 174 0 l 0 0 z "},"ﬆ":{"ha":1156,"x_min":0,"x_max":868,"o":"m 0 0 l 0 174 l 174 174 q 50 224 100 174 q 0 347 0 275 q 50 469 0 419 q 174 521 102 521 l 868 521 l 868 347 l 694 347 l 694 0 l 521 0 l 521 347 l 174 347 q 296 296 245 347 q 347 174 347 244 q 296 50 347 100 q 174 0 244 0 l 0 0 z "}}}
